<svg width="32" height="31" viewBox="0 0 32 31" fill="none" xmlns="http://www.w3.org/2000/svg">
<path d="M19.2009 9.3875V2.72571C19.2008 2.43688 19.1221 2.1535 18.9734 1.90574C18.8246 1.65799 18.6113 1.45514 18.3561 1.31882C18.1009 1.18249 17.8135 1.11778 17.5244 1.13158C17.2353 1.14538 16.9554 1.23717 16.7144 1.39719L13.4039 3.60075L15.7096 5.90172L16.0008 6.19393L19.2009 9.3875ZM1.60008 23.4839H7.51557L16.7128 29.6028C16.9541 29.7627 17.2342 29.8545 17.5234 29.8686C17.8127 29.8826 18.1004 29.8184 18.3561 29.6826C18.6115 29.5462 18.8249 29.3431 18.9737 29.0951C19.1225 28.8471 19.2011 28.5634 19.2009 28.2743V20.9514L23.902 25.6428C23.4289 26.0254 22.9271 26.3714 22.4011 26.6775V29.8711C23.6815 29.3082 24.8848 28.5849 25.9821 27.7186L29.2702 31L31.5327 28.7421L2.73133 0L0.468823 2.25785L5.73788 7.51607H1.60008C1.17571 7.51607 0.768725 7.6843 0.468652 7.98376C0.168579 8.28321 0 8.68936 0 9.11286V21.8871C0 22.3106 0.168579 22.7168 0.468652 23.0162C0.768725 23.3157 1.17571 23.4839 1.60008 23.4839ZM3.20016 10.7096H8.00039C8.25922 10.7043 8.51289 10.6363 8.73963 10.5116L16.0008 17.7579V25.2915L8.88843 20.5586C8.62522 20.3842 8.31637 20.2909 8.00039 20.2904H3.20016V10.7096ZM22.4011 12.5811L25.5868 15.7603C25.59 15.674 25.6012 15.5862 25.6012 15.5C25.6012 12.6721 24.3612 9.27253 22.4011 7.51607V12.5811ZM30.9519 21.1143C31.6488 19.3244 32.0043 17.4203 32 15.5C32 8.96755 28.0446 3.59915 22.4011 1.12893V4.3225C26.2205 6.53564 28.7998 10.7847 28.7998 15.5C28.7938 16.5376 28.6627 17.5707 28.4094 18.577L30.9519 21.1143V21.1143Z" fill="black"/>
</svg>
