<svg width="32" height="29" viewBox="0 0 32 29" fill="none" xmlns="http://www.w3.org/2000/svg">
<path d="M1.60008 22.4011H7.51558L16.7128 28.5326C16.9541 28.6929 17.2342 28.7849 17.5235 28.799C17.8127 28.813 18.1004 28.7487 18.3561 28.6126C18.6115 28.4759 18.825 28.2724 18.9738 28.0239C19.1226 27.7753 19.2011 27.491 19.201 27.2014V1.60008C19.2008 1.31065 19.1222 1.02668 18.9734 0.778417C18.8246 0.530152 18.6113 0.32689 18.3561 0.190279C18.101 0.0536684 17.8135 -0.0111754 17.5244 0.0026544C17.2353 0.0164842 16.9554 0.108469 16.7144 0.268813L7.51558 6.40032H1.60008C1.17571 6.40032 0.768726 6.5689 0.468653 6.86897C0.168579 7.16905 0 7.57603 0 8.0004V20.801C0 21.2254 0.168579 21.6324 0.468653 21.9325C0.768726 22.2325 1.17571 22.4011 1.60008 22.4011ZM3.20016 9.60048H8.0004C8.31562 9.60048 8.62603 9.50608 8.88844 9.33167L16.0008 4.58903V24.2124L8.88844 19.4698C8.62523 19.2949 8.31638 19.2015 8.0004 19.201H3.20016V9.60048ZM22.4011 28.8014C28.0446 26.3261 32 20.9466 32 14.4007C32 7.85479 28.0446 2.47532 22.4011 0V3.20016C26.2205 5.41787 28.7998 9.67568 28.7998 14.4007C28.7998 19.1258 26.2205 23.3836 22.4011 25.6013V28.8014Z" fill="black"/>
<path d="M22.4011 6.40033V22.4011C24.3612 20.641 25.6013 17.2345 25.6013 14.4007C25.6013 11.567 24.3612 8.16042 22.4011 6.40033Z" fill="black"/>
</svg>
