<svg width="103" height="85" viewBox="0 0 103 85" fill="none" xmlns="http://www.w3.org/2000/svg">
<circle cx="32.7014" cy="32.7852" r="32.7014" fill="#83FFCD"/>
<circle cx="66.6128" cy="18.6129" r="13.6256" transform="rotate(30 66.6128 18.6129)" fill="#83FFCD"/>
<path fill-rule="evenodd" clip-rule="evenodd" d="M94.0407 34.0834C87.4226 30.2624 80.8112 26.6179 73.9989 23.1705C73.1441 22.7379 72.8018 21.6943 73.2344 20.8395C73.667 19.9846 74.7107 19.6423 75.5655 20.0749C82.4494 23.5586 89.1187 27.2355 95.7754 31.0788C96.6051 31.5578 96.8894 32.6187 96.4104 33.4484C95.9313 34.2781 94.8704 34.5624 94.0407 34.0834Z" fill="#83FFCD"/>
<path fill-rule="evenodd" clip-rule="evenodd" d="M24.0564 59.8438C25.0069 59.7232 25.8752 60.3958 25.9958 61.3462C26.7397 67.2039 26.3634 72.7583 25.4133 78.4587C25.2558 79.4037 24.3621 80.0421 23.4171 79.8846C22.4721 79.7271 21.8337 78.8333 21.9912 77.8883C22.9047 72.4074 23.243 67.2082 22.5541 61.7832C22.4334 60.8328 23.106 59.9645 24.0564 59.8438Z" fill="#83FFCD"/>
<path fill-rule="evenodd" clip-rule="evenodd" d="M35.7298 61.5481C36.6879 61.5481 37.4645 62.3247 37.4645 63.2828C37.4645 66.4497 37.6058 69.7224 37.7492 73.0155L37.7533 73.11C37.8948 76.3573 38.0372 79.6258 38.0372 82.7552C38.0372 83.7132 37.2606 84.4899 36.3025 84.4899C35.3445 84.4899 34.5678 83.7132 34.5678 82.7552C34.5678 79.7018 34.4282 76.4969 34.2855 73.221L34.2831 73.1665C34.1402 69.8865 33.9951 66.538 33.9951 63.2828C33.9951 62.3247 34.7718 61.5481 35.7298 61.5481Z" fill="#83FFCD"/>
</svg>
