<svg width="66" height="85" viewBox="0 0 66 85" fill="none" xmlns="http://www.w3.org/2000/svg">
<circle cx="32.7014" cy="33.2241" r="32.7014" fill="black"/>
<path fill-rule="evenodd" clip-rule="evenodd" d="M24.0564 60.2828C25.0069 60.1621 25.8752 60.8347 25.9958 61.7852C26.7397 67.6428 26.3634 73.1972 25.4133 78.8976C25.2558 79.8427 24.3621 80.4811 23.4171 80.3236C22.4721 80.1661 21.8337 79.2723 21.9912 78.3273C22.9047 72.8463 23.243 67.6472 22.5541 62.2222C22.4334 61.2718 23.106 60.4035 24.0564 60.2828Z" fill="black"/>
<path fill-rule="evenodd" clip-rule="evenodd" d="M35.7296 61.9871C36.6876 61.9871 37.4643 62.7637 37.4643 63.7218C37.4643 66.8887 37.6055 70.1614 37.749 73.4545L37.7531 73.549C37.8946 76.7962 38.037 80.0648 38.037 83.1941C38.037 84.1522 37.2603 84.9288 36.3023 84.9288C35.3442 84.9288 34.5676 84.1522 34.5676 83.1941C34.5676 80.1407 34.428 76.9358 34.2852 73.6599L34.2829 73.6055C34.14 70.3255 33.9949 66.977 33.9949 63.7218C33.9949 62.7637 34.7715 61.9871 35.7296 61.9871Z" fill="black"/>
</svg>
