<svg width="85" height="121" viewBox="0 0 85 121" fill="none" xmlns="http://www.w3.org/2000/svg">
<path fill-rule="evenodd" clip-rule="evenodd" d="M73.2539 0.748381C71.641 -0.0783331 69.763 -0.204574 67.6199 0.36966C66.1569 0.761684 64.9538 1.3822 64.0108 2.23121C63.0883 3.0747 62.4814 4.06554 62.1901 5.20373C61.8987 6.34192 61.9318 7.53675 62.2892 8.78822L66.3692 7.69497C66.1263 6.78828 66.1934 6.00834 66.5705 5.35515C66.9682 4.69643 67.6411 4.24008 68.589 3.98609C69.4956 3.74314 70.2783 3.82053 70.9371 4.21826C71.6164 4.61047 72.0775 5.25992 72.3205 6.1666C72.6573 7.42359 72.4049 8.41882 71.5634 9.15227C70.7219 9.88573 69.4048 10.4926 67.612 10.973L66.2211 11.3457L67.7836 16.5589L71.5855 15.5402L71.0714 13.1271C73.2145 12.5528 74.7943 11.5663 75.8109 10.1675C76.822 8.74815 77.057 7.02874 76.5159 5.00931C75.9693 2.96928 74.8819 1.54897 73.2539 0.748381ZM69.5107 23.252C70.1529 23.5879 70.8655 23.6509 71.6485 23.4411C72.411 23.2368 72.976 22.8314 73.3435 22.225C73.7056 21.5979 73.79 20.9238 73.5967 20.2025C73.4035 19.4813 72.9961 18.95 72.3745 18.6086C71.7475 18.2465 71.0527 18.1677 70.2903 18.3719C69.5072 18.5818 68.9244 19.003 68.5417 19.6356C68.1742 20.242 68.087 20.9059 68.2803 21.6271C68.4735 22.3483 68.8837 22.8899 69.5107 23.252ZM60.3088 51.25C63.4105 48.756 65.3972 44.9316 65.4026 40.6431C71.3535 40.4013 77.2807 40.3096 83.2655 40.3096C84.2235 40.3096 85.0002 39.5329 85.0002 38.5749C85.0002 37.6168 84.2235 36.8402 83.2655 36.8402C77.1468 36.8402 71.074 36.9354 64.9654 37.1887C63.4423 31.3274 58.115 27 51.777 27C45.6381 27 40.4474 31.0597 38.7433 36.6409C36.7852 36.2751 34.7656 36.0838 32.7014 36.0838C14.6409 36.0838 0 50.7248 0 68.7853C0 83.3858 9.5685 95.7514 22.7768 99.9535C23.142 104.607 22.7822 109.142 21.9912 113.888C21.8337 114.833 22.4721 115.727 23.4171 115.885C24.3621 116.042 25.2558 115.404 25.4133 114.459C26.1715 109.91 26.5642 105.454 26.314 100.863C28.3798 101.272 30.5156 101.487 32.7014 101.487C33.1413 101.487 33.5791 101.478 34.0147 101.461C34.0591 104.02 34.1717 106.614 34.2829 109.167L34.2852 109.221L34.2853 109.221C34.428 112.497 34.5676 115.702 34.5676 118.755C34.5676 119.713 35.3442 120.49 36.3023 120.49C37.2603 120.49 38.037 119.713 38.037 118.755C38.037 115.626 37.8946 112.357 37.7531 109.11L37.7531 109.11L37.749 109.016C37.6334 106.362 37.5192 103.722 37.4792 101.14C53.275 98.8278 65.4029 85.2229 65.4029 68.7853C65.4029 62.3332 63.5343 56.3176 60.3088 51.25Z" fill="black"/>
</svg>
