<svg width="102" height="130" viewBox="0 0 102 130" fill="none" xmlns="http://www.w3.org/2000/svg">
<circle cx="32.8828" cy="77.7854" r="32.7014" fill="black"/>
<circle cx="68.0796" cy="60.8134" r="13.6256" transform="rotate(19.3313 68.0796 60.8134)" fill="black"/>
<path fill-rule="evenodd" clip-rule="evenodd" d="M97.8973 70.9388C90.6862 68.4091 83.5144 66.0516 76.1817 63.9249C75.2615 63.6581 74.732 62.6958 74.9988 61.7757C75.2657 60.8556 76.2279 60.326 77.148 60.5929C84.5579 62.7419 91.7926 65.1206 99.0458 67.665C99.9498 67.9822 100.426 68.9721 100.108 69.8762C99.7913 70.7802 98.8013 71.256 97.8973 70.9388Z" fill="black"/>
<path fill-rule="evenodd" clip-rule="evenodd" d="M24.2381 104.844C25.1885 104.723 26.0568 105.396 26.1775 106.346C26.9213 112.204 26.545 117.759 25.595 123.459C25.4375 124.404 24.5437 125.042 23.5987 124.885C22.6537 124.727 22.0153 123.834 22.1728 122.889C23.0863 117.408 23.4246 112.208 22.7357 106.783C22.615 105.833 23.2877 104.965 24.2381 104.844Z" fill="black"/>
<path fill-rule="evenodd" clip-rule="evenodd" d="M35.911 106.548C36.869 106.548 37.6457 107.325 37.6457 108.283C37.6457 111.45 37.7869 114.723 37.9304 118.016L37.9345 118.11C38.076 121.358 38.2184 124.626 38.2184 127.755C38.2184 128.713 37.4417 129.49 36.4837 129.49C35.5256 129.49 34.749 128.713 34.749 127.755C34.749 124.702 34.6094 121.497 34.4666 118.221L34.4643 118.167C34.3214 114.887 34.1763 111.538 34.1763 108.283C34.1763 107.325 34.9529 106.548 35.911 106.548Z" fill="black"/>
<path d="M90.834 10.4582C92.9771 11.0324 94.5404 12.0808 95.5239 13.6032C96.5335 15.1105 96.765 16.8842 96.2183 18.9242C95.6772 20.9437 94.614 22.3152 93.0287 23.0389C91.4489 23.742 89.5875 23.8064 87.4444 23.2322L86.683 25.5791L82.8812 24.5604L84.1346 19.2643L85.5255 19.637C87.3183 20.1174 88.7624 20.2503 89.8579 20.0359C90.9534 19.8215 91.6695 19.0858 92.0064 17.8288C92.2493 16.9221 92.1747 16.1291 91.7825 15.4498C91.4109 14.7759 90.7717 14.3176 89.865 14.0746C88.9171 13.8206 88.1063 13.8794 87.4325 14.251C86.7793 14.6282 86.3312 15.2701 86.0883 16.1768L82.0082 15.0835C82.3244 13.821 82.8932 12.7697 83.7146 11.9297C84.536 11.0897 85.557 10.535 86.7776 10.2658C88.0189 10.002 89.371 10.0662 90.834 10.4582ZM82.7872 32.453C82.0041 32.2432 81.4185 31.8323 81.0304 31.2203C80.6683 30.5932 80.5839 29.9191 80.7772 29.1978C80.9704 28.4766 81.3778 27.9453 81.9994 27.6038C82.6471 27.2473 83.3624 27.174 84.1455 27.3838C84.9079 27.5881 85.4701 28.0038 85.8322 28.6308C86.1997 29.2373 86.2869 29.9012 86.0937 30.6224C85.9004 31.3436 85.4902 31.8852 84.8632 32.2473C84.2416 32.5887 83.5496 32.6573 82.7872 32.453Z" fill="black"/>
<path d="M60.7962 2.47442C62.9393 1.90018 64.8173 2.02642 66.4302 2.85314C68.0582 3.65372 69.1455 5.07403 69.6922 7.11407C70.2333 9.1335 69.9983 10.8529 68.9872 12.2723C67.9706 13.6711 66.3907 14.6576 64.2477 15.2318L64.7618 17.645L60.9599 18.6637L59.3974 13.4505L60.7883 13.0778C62.581 12.5974 63.8982 11.9905 64.7397 11.257C65.5812 10.5236 65.8335 9.52835 65.4967 8.27136C65.2538 7.36468 64.7927 6.71523 64.1133 6.32302C63.4546 5.92529 62.6719 5.8479 61.7652 6.09084C60.8173 6.34483 60.1445 6.80118 59.7468 7.4599C59.3697 8.1131 59.3026 8.89304 59.5455 9.79972L55.4654 10.893C55.108 9.6415 55.075 8.44668 55.3663 7.30849C55.6577 6.1703 56.2646 5.17946 57.187 4.33597C58.1301 3.48696 59.3331 2.86644 60.7962 2.47442ZM64.8248 25.5459C64.0418 25.7557 63.3292 25.6926 62.687 25.3567C62.0599 24.9947 61.6498 24.4531 61.4565 23.7318C61.2633 23.0106 61.3504 22.3468 61.718 21.7403C62.1006 21.1077 62.6835 20.6865 63.4665 20.4767C64.229 20.2724 64.9237 20.3513 65.5508 20.7133C66.1723 21.0547 66.5797 21.5861 66.773 22.3073C66.9662 23.0285 66.8818 23.7027 66.5198 24.3297C66.1522 24.9362 65.5872 25.3416 64.8248 25.5459Z" fill="black"/>
</svg>
