<svg width="105" height="197" viewBox="0 0 105 197" fill="none" xmlns="http://www.w3.org/2000/svg">
<circle cx="45.7014" cy="62.7852" r="32.7014" fill="#83FFCD"/>
<circle cx="68.6666" cy="29.1234" r="13.6256" transform="rotate(-30 68.6666 29.1234)" fill="#83FFCD"/>
<path fill-rule="evenodd" clip-rule="evenodd" d="M95.7782 13.1054C89.1601 16.9263 82.6981 20.8297 76.3065 25.0056C75.5044 25.5296 74.4295 25.3042 73.9055 24.5022C73.3815 23.7001 73.6069 22.6252 74.4089 22.1012C80.8678 17.8813 87.3868 13.944 94.0435 10.1008C94.8732 9.62176 95.9341 9.90603 96.4131 10.7357C96.8921 11.5654 96.6079 12.6263 95.7782 13.1054Z" fill="#83FFCD"/>
<path fill-rule="evenodd" clip-rule="evenodd" d="M37.0564 89.8438C38.0069 89.7232 38.8752 90.3958 38.9958 91.3462C39.7397 97.2039 39.3634 102.758 38.4133 108.459C38.2558 109.404 37.3621 110.042 36.4171 109.885C35.4721 109.727 34.8337 108.833 34.9912 107.888C35.9047 102.407 36.243 97.2082 35.5541 91.7832C35.4334 90.8328 36.106 89.9645 37.0564 89.8438Z" fill="#83FFCD"/>
<path fill-rule="evenodd" clip-rule="evenodd" d="M48.7298 91.5481C49.6879 91.5481 50.4645 92.3247 50.4645 93.2828C50.4645 96.4497 50.6058 99.7224 50.7492 103.016L50.7533 103.11C50.8948 106.357 51.0372 109.626 51.0372 112.755C51.0372 113.713 50.2606 114.49 49.3025 114.49C48.3445 114.49 47.5678 113.713 47.5678 112.755C47.5678 109.702 47.4282 106.497 47.2855 103.221L47.2831 103.167C47.1402 99.8865 46.9951 96.538 46.9951 93.2828C46.9951 92.3247 47.7718 91.5481 48.7298 91.5481Z" fill="#83FFCD"/>
<path d="M83.6 117.8H70.4V113.4C70.4 112.233 69.9364 111.114 69.1113 110.289C68.2861 109.464 67.167 109 66 109H22C20.8368 109 19.721 109.461 18.8965 110.281C18.072 111.101 17.6058 112.215 17.6 113.378L17.578 117.8H4.4C3.23305 117.8 2.11389 118.264 1.28873 119.089C0.46357 119.914 0 121.033 0 122.2V135.4C0 145.106 7.8936 153 17.6 153H17.8288C18.7701 158.415 21.3706 163.404 25.2709 167.277C29.1711 171.149 34.1783 173.714 39.6 174.617V188.2H26.4V197H61.6V188.2H48.4V174.586C53.7845 173.653 58.7487 171.077 62.6129 167.213C66.4772 163.349 69.0526 158.384 69.9864 153H70.4C80.1064 153 88 145.106 88 135.4V122.2C88 121.033 87.5364 119.914 86.7113 119.089C85.8861 118.264 84.767 117.8 83.6 117.8V117.8ZM8.8 135.4V126.6H17.5296L17.4372 144.182C15.1347 144.14 12.9406 143.196 11.3258 141.554C9.71101 139.912 8.80421 137.703 8.8 135.4V135.4ZM61.6 148.508C61.5942 153.198 59.7283 157.695 56.4116 161.012C53.0949 164.328 48.5981 166.194 43.9076 166.2C39.2198 166.195 34.725 164.332 31.4085 161.019C28.0921 157.706 26.2245 153.213 26.2152 148.525L26.378 117.8H61.6V148.508ZM70.4 144.2V126.6H79.2V135.4C79.2 140.253 75.2532 144.2 70.4 144.2Z" fill="#83FFCD"/>
</svg>
