<svg width="224" height="246" viewBox="0 0 224 246" fill="none" xmlns="http://www.w3.org/2000/svg">
<circle r="42.6378" transform="matrix(-0.965926 -0.258819 -0.258819 0.965926 75.0901 176.026)" fill="black"/>
<circle r="17.7658" transform="matrix(0.651683 -0.758491 -0.758491 -0.651683 100.053 128.074)" fill="black"/>
<path fill-rule="evenodd" clip-rule="evenodd" d="M127.121 97.2022C120.628 104.76 114.067 112.097 107.173 119.279C106.308 120.18 106.337 121.612 107.239 122.477C108.14 123.342 109.572 123.313 110.437 122.412C117.403 115.154 124.021 107.752 130.552 100.15C131.366 99.2027 131.258 97.7747 130.311 96.9606C129.363 96.1466 127.935 96.2547 127.121 97.2022Z" fill="black"/>
<path fill-rule="evenodd" clip-rule="evenodd" d="M92.4151 212.484C91.835 213.591 92.2614 214.958 93.3677 215.538C100.186 219.113 107.143 221.182 114.541 222.617C115.767 222.855 116.954 222.053 117.192 220.827C117.429 219.601 116.628 218.414 115.402 218.176C108.289 216.797 101.783 214.843 95.4686 211.532C94.3623 210.952 92.9953 211.378 92.4151 212.484Z" fill="black"/>
<path fill-rule="evenodd" clip-rule="evenodd" d="M106.883 189.101C105.747 189.62 105.247 190.962 105.766 192.098C107.483 195.854 109.089 199.811 110.704 203.794L110.75 203.908C112.343 207.836 113.945 211.789 115.641 215.5C116.161 216.636 117.503 217.136 118.639 216.617C119.775 216.098 120.275 214.756 119.756 213.619C118.101 209.999 116.529 206.122 114.923 202.16L114.896 202.094C113.288 198.127 111.645 194.078 109.881 190.218C109.361 189.082 108.019 188.581 106.883 189.101Z" fill="black"/>
<path d="M44.04 91.799L58.5941 93.6761" stroke="black" stroke-width="3"/>
<path d="M64.6963 53.8645L73.6602 65.4832" stroke="black" stroke-width="3"/>
<path d="M109.293 36.5306L106.999 50.5569" stroke="black" stroke-width="3"/>
<path d="M186.255 99.9087L172.713 105.56" stroke="black" stroke-width="3"/>
<path d="M164.412 55.2982L154.556 66.1706" stroke="black" stroke-width="3"/>
<path d="M187.334 143.09L173.762 137.51" stroke="black" stroke-width="3"/>
<path d="M157.378 180.4L152.352 167.105" stroke="black" stroke-width="3"/>
</svg>
