<svg width="95" height="122" viewBox="0 0 95 122" fill="none" xmlns="http://www.w3.org/2000/svg">
<circle r="32.7014" transform="matrix(-1 0 0 1 62.2988 69.7852)" fill="black"/>
<circle r="13.6256" transform="matrix(-0.758491 -0.651683 -0.651683 0.758491 26.3414 56.8042)" fill="black"/>
<path fill-rule="evenodd" clip-rule="evenodd" d="M2.66371 36.044C8.46002 41.0241 14.0877 46.0563 19.5957 51.3433C20.2869 52.0067 21.385 51.9842 22.0484 51.2931C22.7119 50.6019 22.6894 49.5038 21.9982 48.8403C16.4321 43.4977 10.7548 38.4216 4.92465 33.4125C4.19798 32.7881 3.10277 32.8711 2.47843 33.5977C1.85409 34.3244 1.93704 35.4196 2.66371 36.044Z" fill="black"/>
<path fill-rule="evenodd" clip-rule="evenodd" d="M70.9437 96.8438C69.9933 96.7232 69.125 97.3958 69.0043 98.3462C68.2605 104.204 68.6367 109.758 69.5868 115.459C69.7443 116.404 70.638 117.042 71.5831 116.885C72.5281 116.727 73.1665 115.833 73.009 114.888C72.0955 109.407 71.7571 104.208 72.446 98.7832C72.5667 97.8328 71.8941 96.9645 70.9437 96.8438Z" fill="black"/>
<path fill-rule="evenodd" clip-rule="evenodd" d="M59.2707 98.5481C58.3126 98.5481 57.536 99.3247 57.536 100.283C57.536 103.45 57.3947 106.722 57.2513 110.016L57.2472 110.11C57.1057 113.357 56.9633 116.626 56.9633 119.755C56.9633 120.713 57.7399 121.49 58.698 121.49C59.656 121.49 60.4327 120.713 60.4327 119.755C60.4327 116.702 60.5723 113.497 60.715 110.221L60.7174 110.167C60.8603 106.887 61.0054 103.538 61.0054 100.283C61.0054 99.3247 60.2287 98.5481 59.2707 98.5481Z" fill="black"/>
<path d="M35.8342 2.4582C37.9772 3.03243 39.5405 4.08076 40.524 5.60318C41.5336 7.11051 41.7651 8.8842 41.2185 10.9242C40.6774 12.9437 39.6141 14.3152 38.0288 15.0389C36.449 15.742 34.5876 15.8064 32.4445 15.2322L31.6832 17.5791L27.8813 16.5604L29.1347 11.2643L30.5256 11.637C32.3184 12.1174 33.7625 12.2503 34.858 12.0359C35.9535 11.8215 36.6697 11.0858 37.0065 9.82876C37.2494 8.92208 37.1748 8.12908 36.7826 7.44975C36.411 6.77595 35.7718 6.31757 34.8652 6.07463C33.9173 5.82064 33.1064 5.87945 32.4326 6.25105C31.7794 6.62817 31.3313 7.27008 31.0884 8.17676L27.0083 7.08351C27.3245 5.82099 27.8933 4.76972 28.7147 3.9297C29.5361 3.08967 30.5571 2.53502 31.7778 2.26577C33.019 2.00203 34.3711 2.06618 35.8342 2.4582ZM27.7873 24.453C27.0043 24.2432 26.4187 23.8323 26.0305 23.2203C25.6685 22.5932 25.5841 21.9191 25.7773 21.1978C25.9706 20.4766 26.378 19.9453 26.9995 19.6038C27.6472 19.2473 28.3626 19.174 29.1456 19.3838C29.908 19.5881 30.4703 20.0038 30.8323 20.6308C31.1999 21.2373 31.287 21.9012 31.0938 22.6224C30.9005 23.3436 30.4904 23.8852 29.8633 24.2473C29.2417 24.5887 28.5497 24.6573 27.7873 24.453Z" fill="black"/>
</svg>
