<svg width="176" height="166" viewBox="0 0 176 166" fill="none" xmlns="http://www.w3.org/2000/svg">
<circle r="42.6378" transform="matrix(-0.965926 -0.258819 -0.258819 0.965926 115.091 98.0261)" fill="black"/>
<circle r="17.7658" transform="matrix(-0.646216 0.763154 0.763154 0.646216 74.0804 71.9795)" fill="black"/>
<path fill-rule="evenodd" clip-rule="evenodd" d="M47.2343 103.045C53.6731 95.4415 60.1815 88.0569 67.0232 80.8258C67.8817 79.9185 67.8421 78.4869 66.9347 77.6284C66.0273 76.7699 64.5958 76.8095 63.7373 77.7169C56.8236 85.0241 50.2585 92.4739 43.7821 100.122C42.9749 101.076 43.0933 102.503 44.0466 103.31C44.9999 104.117 46.4271 103.999 47.2343 103.045Z" fill="black"/>
<path fill-rule="evenodd" clip-rule="evenodd" d="M123.582 133.645C122.43 134.129 121.888 135.454 122.371 136.606C125.35 143.705 129.396 149.732 134.185 155.549C134.979 156.514 136.404 156.652 137.369 155.858C138.333 155.064 138.471 153.639 137.677 152.674C133.073 147.081 129.301 141.431 126.543 134.856C126.059 133.704 124.734 133.162 123.582 133.645Z" fill="black"/>
<path fill-rule="evenodd" clip-rule="evenodd" d="M93.2288 125.062C92.3455 124.179 90.9134 124.179 90.0302 125.062C87.1104 127.982 83.9628 130.869 80.7944 133.773L80.7035 133.856C77.5792 136.72 74.4345 139.602 71.5493 142.487C70.6661 143.37 70.6661 144.802 71.5493 145.685C72.4326 146.569 73.8647 146.569 74.748 145.685C77.5631 142.87 80.6466 140.044 83.7985 137.156L83.8508 137.108C87.0066 134.215 90.2276 131.262 93.2288 128.261C94.1121 127.377 94.1121 125.945 93.2288 125.062Z" fill="black"/>
<path d="M71.1301 40.0594L75.9455 37.9855L73.8862 32.8725L83.1348 31.4259L78.0953 22.7915L92.3093 20.6698" stroke="black" stroke-width="3"/>
<path d="M56.389 34.8673L58.1187 29.9926L53.0314 27.9991L58.1914 20.3609L48.5522 18.1184L56.556 6.44841" stroke="black" stroke-width="3"/>
<path d="M50.7024 47.721L46.8384 44.2825L43.0754 48.2441L37.9435 40.5869L32.2352 48.6714L24.4398 36.8611" stroke="black" stroke-width="3"/>
</svg>
